HIERARCHY
ROOT Hips
{
	OFFSET 0.000000 0.000000 0.000000
	CHANNELS 6 Xposition Yposition Zposition Zrotation Yrotation Xrotation 
	JOINT LHipJoint
	{
		OFFSET 0.000000 0.000000 0.000000
		CHANNELS 3 Zrotation Yrotation Xrotation
		JOINT LeftUpLeg
		{
			OFFSET 1.363060 -1.794630 0.839290
			CHANNELS 3 Zrotation Yrotation Xrotation
			JOINT LeftLeg
			{
				OFFSET 2.448110 -6.726130 0.000000
				CHANNELS 3 Zrotation Yrotation Xrotation
				JOINT LeftFoot
				{
					OFFSET 2.562200 -7.039590 0.000000
					CHANNELS 3 Zrotation Yrotation Xrotation
					JOINT LeftToeBase
					{
						OFFSET 0.157640 -0.433110 2.322550
						CHANNELS 3 Zrotation Yrotation Xrotation
						End Site
						{
							OFFSET 0.000000 0.000000 0.000000
						}
					}
				}
			}
		}
	}
	JOINT RHipJoint
	{
		OFFSET 0.000000 0.000000 0.000000
		CHANNELS 3 Zrotation Yrotation Xrotation
		JOINT RightUpLeg
		{
			OFFSET -1.305520 -1.794630 0.839290
			CHANNELS 3 Zrotation Yrotation Xrotation
			JOINT RightLeg
			{
				OFFSET -2.542530 -6.985550 0.000000
				CHANNELS 3 Zrotation Yrotation Xrotation
				JOINT RightFoot
				{
					OFFSET -2.568260 -7.056230 0.000000
					CHANNELS 3 Zrotation Yrotation Xrotation
					JOINT RightToeBase
					{
						OFFSET -0.164730 -0.452590 2.363150
						CHANNELS 3 Zrotation Yrotation Xrotation
						End Site
						{
							OFFSET 0.000000 0.000000 0.000000
						}
					}
				}
			}
		}
	}
	JOINT LowerBack
	{
		OFFSET 0.000000 0.000000 0.000000
		CHANNELS 3 Zrotation Yrotation Xrotation
		JOINT Spine
		{
			OFFSET 0.028270 2.035590 -0.193380
			CHANNELS 3 Zrotation Yrotation Xrotation
			JOINT Spine1
			{
				OFFSET 0.056720 2.048850 -0.042750
				CHANNELS 3 Zrotation Yrotation Xrotation
				JOINT Neck
				{
					OFFSET 0.000000 0.000000 0.000000
					CHANNELS 3 Zrotation Yrotation Xrotation
					JOINT Neck1
					{
						OFFSET -0.054170 1.746240 0.172020
						CHANNELS 3 Zrotation Yrotation Xrotation
						JOINT Head
						{
							OFFSET 0.104070 1.761360 -0.123970
							CHANNELS 3 Zrotation Yrotation Xrotation
							End Site
							{
								OFFSET 0.000000 0.000000 0.000000
							}
						}
					}
				}
				JOINT LeftShoulder
				{
					OFFSET 0.000000 0.000000 0.000000
					CHANNELS 3 Zrotation Yrotation Xrotation
					JOINT LeftArm
					{
						OFFSET 3.362410 1.200890 -0.311210
						CHANNELS 3 Zrotation Yrotation Xrotation
						JOINT LeftForeArm
						{
							OFFSET 4.983000 -0.000000 -0.000000
							CHANNELS 3 Zrotation Yrotation Xrotation
							JOINT LeftHand
							{
								OFFSET 3.483560 -0.000000 -0.000000
								CHANNELS 3 Zrotation Yrotation Xrotation
								JOINT LeftFingerBase
								{
									OFFSET 0.000000 0.000000 0.000000
									CHANNELS 3 Zrotation Yrotation Xrotation
									JOINT LeftHandIndex1
									{
										OFFSET 0.715260 -0.000000 -0.000000
										CHANNELS 3 Zrotation Yrotation Xrotation
										End Site
										{
											OFFSET 0.000000 0.000000 0.000000
										}
									}
								}
								JOINT LThumb
								{
									OFFSET 0.000000 0.000000 0.000000
									CHANNELS 3 Zrotation Yrotation Xrotation
									End Site
									{
										OFFSET 0.000000 0.000000 0.000000
									}
								}
							}
						}
					}
				}
				JOINT RightShoulder
				{
					OFFSET 0.000000 0.000000 0.000000
					CHANNELS 3 Zrotation Yrotation Xrotation
					JOINT RightArm
					{
						OFFSET -3.136600 1.374050 -0.404650
						CHANNELS 3 Zrotation Yrotation Xrotation
						JOINT RightForeArm
						{
							OFFSET -5.241900 -0.000000 -0.000000
							CHANNELS 3 Zrotation Yrotation Xrotation
							JOINT RightHand
							{
								OFFSET -3.444170 -0.000000 -0.000000
								CHANNELS 3 Zrotation Yrotation Xrotation
								JOINT RightFingerBase
								{
									OFFSET 0.000000 0.000000 0.000000
									CHANNELS 3 Zrotation Yrotation Xrotation
									JOINT RightHandIndex1
									{
										OFFSET -0.622530 -0.000000 -0.000000
										CHANNELS 3 Zrotation Yrotation Xrotation
										End Site
										{
											OFFSET 0.000000 0.000000 0.000000
										}
									}
								}
								JOINT RThumb
								{
									OFFSET 0.000000 0.000000 0.000000
									CHANNELS 3 Zrotation Yrotation Xrotation
									End Site
									{
										OFFSET 0.000000 0.000000 0.000000
									}
								}
							}
						}
					}
				}
			}
		}
	}
}
MOTION
Frames: 10
Frame Time: 0.008333
0.141415 17.583838 -1.212845 149.851350 82.763569 134.902338 1.412248 -1.745999 -0.067483 -28.406233 1.500581 24.709217 -1.176976 5.603719 14.747840 0.566551 -1.174953 -11.716120 0.163500 -2.604800 -7.180500 -4.975367 6.281288 -7.785352 3.185726 -13.680312 16.594493 -0.408726 -3.696913 7.094302 -0.067642 -5.301743 -9.282354 -0.492300 -4.498700 12.484200 -9.159158 1.654794 6.860214 -0.230135 2.624615 -1.133196 2.018091 0.303845 7.518987 1.567452 -0.865815 -21.460033 3.093583 -0.808304 19.346541 -2.430900 1.142100 19.007600 5.661379 0.820770 0.430144 -28.050978 -57.993107 19.751129 24.034193 -33.338745 -8.053279 0.812909 0.557966 -0.258445 -2.739832 -26.056391 1.591200 -7.125000 0.000000 0.000000 -19.870300 4.624400 19.436000 -3.768385 -0.553536 0.228230 38.477015 55.343344 21.906376 -23.473181 36.102907 -6.534495 0.811360 -1.508955 1.525790 0.398738 -27.373517 0.203100 7.125000 0.000000 0.000000 30.160800 -53.201800 -6.557100 
0.191664 17.588966 -1.201257 150.861937 82.476377 135.932691 1.418230 -1.767945 -0.071929 -28.369816 1.508291 24.795525 -1.162909 5.625015 14.829022 0.558914 -1.261163 -11.492927 0.188200 -2.794200 -7.706400 -4.966735 6.249373 -7.772064 3.168049 -13.566233 16.543076 -0.412213 -3.646089 6.963436 -0.068893 -5.222220 -9.151458 -0.490600 -4.491100 12.462600 -9.179600 1.668518 6.756182 -0.245693 2.649247 -1.164888 1.986073 0.320087 7.467238 1.527473 -0.930815 -21.435205 3.164790 -0.894673 19.326273 -2.377200 1.112000 18.979200 5.656181 0.826270 0.423712 -28.119992 -58.007399 20.005596 24.117429 -33.415700 -8.093339 0.810258 0.553831 -0.280899 -2.733122 -25.934133 1.580100 -7.125000 0.000000 0.000000 -19.870900 4.743400 19.389600 -3.786964 -0.547786 0.226488 38.586166 55.301179 21.783104 -23.403829 36.022790 -6.495448 0.812270 -1.502767 1.553905 0.438970 -27.069029 0.184100 7.125000 0.000000 0.000000 29.997500 -52.937600 -6.312400 
0.243964 17.595426 -1.192848 150.984644 82.274412 136.083364 1.427695 -1.774467 -0.068914 -28.411628 1.571874 24.892374 -1.151126 5.648955 14.902700 0.562340 -1.371573 -11.400164 0.164900 -2.616100 -7.211700 -4.947652 6.242005 -7.764761 3.069318 -13.479427 16.482200 -0.415267 -3.578242 6.800823 -0.070459 -5.111092 -8.969233 -0.494200 -4.507200 12.508300 -9.152452 1.694328 6.633694 -0.281074 2.692378 -1.200303 1.869272 0.357774 7.426018 1.442588 -0.983592 -21.481317 3.257443 -0.939079 19.340980 -2.284100 1.093200 19.014800 5.642315 0.837538 0.420657 -28.125099 -57.986425 20.162756 24.156637 -33.446294 -8.110485 0.812132 0.548481 -0.224348 -2.839662 -25.841133 1.622700 -7.125000 0.000000 0.000000 -19.936700 4.840600 19.424200 -3.812832 -0.531433 0.213581 38.745121 55.313910 21.827368 -23.360850 35.972363 -6.472879 0.810403 -1.501186 1.485370 0.258873 -26.918269 0.258800 7.125000 0.000000 0.000000 29.734000 -52.837100 -6.171600 
0.298725 17.599528 -1.182183 151.952705 81.974979 137.053309 1.433197 -1.796649 -0.075078 -28.406247 1.549144 25.040308 -1.134004 5.678159 15.008888 0.576242 -1.576993 -11.328317 0.121600 -2.247900 -6.191100 -4.938352 6.228946 -7.756319 2.971808 -13.498435 16.484304 -0.412363 -3.511224 6.614425 -0.066960 -5.069194 -8.681740 -0.416600 -4.142900 11.478900 -9.144429 1.669431 6.506620 -0.299602 2.674893 -1.216578 1.818859 0.349124 7.455972 1.314161 -1.014080 -21.545837 3.374560 -0.933088 19.329530 -2.160400 1.083900 19.022400 5.627627 0.845241 0.424360 -28.010575 -57.968137 20.184618 24.170897 -33.457035 -8.116025 0.812341 0.546101 -0.271588 -2.916584 -25.788251 1.654000 -7.125000 0.000000 0.000000 -19.983400 4.896900 19.453800 -3.834276 -0.522339 0.207447 38.788162 55.229750 21.924340 -23.400686 36.010883 -6.490593 0.808666 -1.499402 1.443460 0.125913 -26.844237 0.313900 7.125000 0.000000 0.000000 29.565100 -52.795600 -6.099700 
0.355332 17.601374 -1.168339 154.038971 81.564005 139.108305 1.436623 -1.837036 -0.090611 -28.289176 1.441584 25.255178 -1.117353 5.692001 15.099134 0.585074 -1.736456 -11.239111 0.102600 -2.065900 -5.687800 -4.945519 6.196930 -7.737248 2.960375 -13.621596 16.555248 -0.402919 -3.457230 6.423621 -0.060394 -5.113123 -8.432793 -0.381900 -3.968500 10.988000 -9.112637 1.624273 6.434799 -0.297836 2.623587 -1.233159 1.804995 0.317675 7.451161 1.282625 -1.038746 -21.564704 3.410165 -0.958344 19.304262 -2.129200 1.071700 19.003800 5.628868 0.834386 0.420820 -28.064895 -58.020876 20.337413 24.215406 -33.493973 -8.134296 0.811217 0.540471 -0.291960 -2.953973 -25.631345 1.660600 -7.125000 0.000000 0.000000 -20.012000 5.052000 19.423400 -3.847043 -0.520149 0.207774 38.757991 54.974247 21.944316 -23.492300 36.096922 -6.533236 0.810022 -1.496694 1.445423 0.129741 -26.830738 0.312700 7.125000 0.000000 0.000000 29.560300 -52.785800 -6.091100 
0.411016 17.602912 -1.154187 154.538057 81.104676 139.574201 1.443765 -1.865437 -0.103559 -28.426293 1.381125 25.421685 -1.103526 5.738001 15.238456 0.584858 -1.780747 -11.183141 0.111600 -2.153700 -5.930600 -4.905184 6.212165 -7.734047 2.621047 -13.741574 16.671234 -0.389527 -3.384466 6.234731 -0.055260 -5.148666 -8.232558 -0.462300 -4.361300 12.095500 -9.345953 1.581119 6.327607 -0.295975 2.584571 -1.225983 1.912986 0.276175 7.538565 1.360087 -1.024898 -21.663705 3.283658 -0.964526 19.277973 -2.252700 1.066500 19.007700 5.634933 0.823982 0.415982 -28.123472 -58.021576 20.204597 24.242795 -33.528244 -8.153124 0.814666 0.535389 -0.053703 -2.980047 -25.581109 1.669600 -7.125000 0.000000 0.000000 -20.030100 5.102100 19.423300 -3.831204 -0.541213 0.211158 38.576002 54.987492 21.865672 -23.500122 36.112426 -6.545550 0.806117 -1.504435 1.357944 0.033811 -27.158771 0.355400 7.125000 0.000000 0.000000 29.686900 -53.077900 -6.344100 
0.461265 17.603835 -1.141368 153.601852 80.829570 138.651230 1.452300 -1.871245 -0.108368 -28.704018 1.406085 25.426726 -1.083363 5.834887 15.478841 0.575863 -1.768929 -11.083315 0.132600 -2.347000 -6.465500 -4.852855 6.234700 -7.747806 2.278464 -13.617940 16.638914 -0.390685 -3.340126 6.179968 -0.053315 -5.138474 -8.027817 -0.537200 -4.696200 13.044100 -9.669011 1.608625 6.126025 -0.294530 2.647246 -1.206702 2.105207 0.278748 7.675746 1.350354 -1.007333 -21.696821 3.215335 -0.934880 19.206277 -2.312400 1.060700 18.934800 5.636221 0.830064 0.416186 -28.132501 -58.023034 19.905023 24.196749 -33.502405 -8.141157 0.821854 0.539109 0.248253 -2.992208 -25.810267 1.691000 -7.125000 0.000000 0.000000 -20.027900 4.879500 19.510200 -3.808385 -0.567536 0.223728 38.355589 55.163267 21.706708 -23.424026 36.051747 -6.518467 0.802320 -1.512986 1.367444 0.081537 -27.479808 0.337200 7.125000 0.000000 0.000000 29.944200 -53.340000 -6.609000 
0.516026 17.607629 -1.125576 153.710851 80.367896 138.743523 1.465627 -1.882297 -0.084480 -28.845299 1.389118 25.480783 -1.060722 5.896385 15.655807 0.574348 -1.955126 -10.829599 0.179600 -2.729600 -7.526900 -4.777880 6.234842 -7.726047 2.023999 -13.433171 16.848431 -0.378046 -3.213917 5.882357 -0.038469 -5.435064 -7.967121 -0.583100 -4.889400 13.593300 -9.722915 1.615448 6.334300 -0.388026 2.620734 -1.335849 1.738399 0.342693 7.170733 1.489907 -1.010685 -21.431069 3.310107 -1.016675 19.207798 -2.267100 1.075800 18.903800 5.630079 0.804178 0.395077 -28.383909 -57.912300 20.595919 24.207984 -33.478942 -8.136588 0.824566 0.545219 0.225130 -2.963181 -25.971805 1.689200 -7.125000 0.000000 0.000000 -20.005100 4.720700 19.548200 -3.878007 -0.502548 0.196729 39.119919 54.828730 22.063737 -23.369671 35.958710 -6.486923 0.818203 -1.512140 1.522582 0.267621 -27.414520 0.263800 7.125000 0.000000 0.000000 30.057500 -53.258300 -6.574800 
0.566787 17.608655 -1.114398 153.795182 80.134000 138.884695 1.471435 -1.896256 -0.093893 -28.828027 1.490121 25.509686 -1.045665 5.928136 15.749715 0.573670 -2.038566 -10.716330 0.233200 -3.108300 -8.580400 -4.771848 6.240544 -7.725009 1.838358 -13.532246 16.675586 -0.377007 -3.194169 5.839302 -0.035820 -5.441494 -7.617022 -0.601700 -4.965400 13.809800 -9.827057 1.657070 6.098323 -0.383703 2.702114 -1.324296 1.855072 0.361573 7.302060 1.397265 -1.041872 -21.497765 3.313646 -1.018937 19.182938 -2.248000 1.056500 18.886100 5.630852 0.808648 0.389230 -28.422491 -58.108276 20.468840 24.109195 -33.381658 -8.084028 0.834464 0.544245 0.181480 -3.237599 -26.049624 1.821400 -7.125000 0.000000 0.000000 -20.162700 4.662200 19.748000 -3.868413 -0.512909 0.206692 38.760250 54.788235 21.862246 -23.395163 35.982997 -6.495414 0.821503 -1.507223 1.326167 0.388336 -27.394584 0.210000 7.125000 0.000000 0.000000 30.160100 -53.221900 -6.572500 
0.625035 17.611424 -1.094811 155.710999 79.721815 140.806890 1.478200 -1.935692 -0.127690 -28.545793 1.422944 25.694188 -1.015907 5.967762 15.924232 0.584941 -2.204217 -10.654031 0.250800 -3.222200 -8.898100 -4.797310 6.222730 -7.727257 1.886608 -13.764758 16.815713 -0.359463 -3.097683 5.497753 -0.026054 -5.602645 -7.438659 -0.592800 -4.929200 13.706700 -9.909432 1.563812 5.751735 -0.328304 2.633941 -1.248416 2.151254 0.254588 7.730361 1.203765 -1.106908 -21.731065 3.340915 -1.026603 19.139870 -2.197400 1.013000 18.867300 5.621707 0.827631 0.401485 -28.138542 -58.278041 19.937734 24.070311 -33.368312 -8.074292 0.845180 0.538604 0.107300 -3.672057 -26.075574 2.022900 -7.125000 0.000000 0.000000 -20.413500 4.663900 20.029300 -3.835133 -0.559314 0.226944 37.970513 54.844381 21.589658 -23.508973 36.117322 -6.549235 0.818732 -1.502792 0.968830 0.407845 -27.484837 0.196700 7.125000 0.000000 0.000000 30.250200 -53.293400 -6.650800 
